<?xml version="1.0" standalone="no"?>
<!DOCTYPE svg PUBLIC "-//W3C//DTD SVG 1.1//EN" "http://www.w3.org/Graphics/SVG/1.1/DTD/svg11.dtd" >
<svg xmlns="http://www.w3.org/2000/svg">
<metadata>
This is a custom SVG webfont generated by Font Squirrel.
Copyright   : Copyright c Typographer Mediengestaltung 2000 All rights reserved
</metadata>
<defs>
<font id="webfontn3TMckQu" horiz-adv-x="1048" >
<font-face units-per-em="2048" ascent="1638" descent="-410" />
<missing-glyph horiz-adv-x="878" />
<glyph unicode=" "  horiz-adv-x="878" />
<glyph unicode="&#x09;" horiz-adv-x="878" />
<glyph unicode="&#xa0;" horiz-adv-x="878" />
<glyph unicode="!" horiz-adv-x="602" d="M63 252h469v1149h-469v-1149zM96 -4h408v197h-408v-197z" />
<glyph unicode="&#x22;" horiz-adv-x="1007" d="M63 1200q70 -29 109 -129q14 -31 27 -96h141q4 39 8 62.5t8 33.5q35 102 111 133l-2 207h-402v-211zM514 1200q92 -33 121 -166l12 -59h141q4 39 8.5 62.5t8.5 33.5q35 102 110 133v207h-401v-211z" />
<glyph unicode="#" horiz-adv-x="1153" d="M16 365h220l-93 -361h168l101 361h184l-104 -361h176l100 361h184l68 190h-205l57 242h172l89 198h-222l93 373h-148l-100 -373h-215l100 381h-172l-92 -381h-221l-72 -198h244l-52 -234h-200zM424 557l68 244h221l-66 -244h-223z" />
<glyph unicode="$" horiz-adv-x="940" d="M23 293q0 -154 124 -236q109 -70 269 -69v-185h116v185q268 29 408 188v160l-100 -43q14 23 14 49l2 55q2 100 -100 201q-211 205 -211 242q0 45 22 57q27 20 64 21q104 0 225 -158v201q-57 78 -144 125t-180 47v190h-116v-182h-35q-137 0 -231 -101q-94 -96 -95 -237 q0 -104 37 -144q2 -6 129 -133l127 -127q25 -31 25 -82q0 -90 -92 -90q-66 0 -86 70q-10 37 -11 127h-137q-24 -68 -24 -131z" />
<glyph unicode="%" horiz-adv-x="2254" d="M6 612q0 -115 164 -180q123 -49 258 -49q82 0 141 14q264 57 265 191v444q100 0 172 96v144q-68 -49 -132 -43v260h-284v-41q-133 78 -277 78q-135 0 -231 -90q-76 -70 -76 -131v-693zM442 604v635q0 10 8.5 22.5t19.5 23.5t24.5 19.5t23.5 8.5q25 -4 35 -17l20 -16 l-6 -59q0 -160 123 -172v-336q0 -150 -139 -150l-68 15q-25 10 -41 26zM729 -131h184l449 1616h-184zM1255 55q0 -111 164 -176q123 -49 258 -49q82 0 142 14q264 57 264 187v444q100 0 172 96v144q-68 -49 -131 -43v260h-285v-41q-133 78 -276 78q-135 0 -232 -90 q-76 -70 -76 -131v-693zM1692 47v635q0 10 8 22.5t19.5 23.5t24.5 19.5t23 8.5q25 -4 35 -17l21 -16l-6 -59q0 -160 122 -172v-336q0 -150 -139 -150l-67 14q-25 11 -41 27z" />
<glyph unicode="&#x26;" horiz-adv-x="1253" d="M12 385q0 -193 117 -302.5t315 -109.5q207 0 308 95q63 -70 157 -70q109 0 211 80q100 82 131 190v185q-27 -37 -61 -64l-70 -53l-84 125q18 41 25 78l6 86l-72 127q-18 -80 -59 -127q-59 80 -164 184q158 80 158 297q0 328 -424 328q-92 0 -169 -27t-132 -76t-85 -121.5 t-30 -165.5q0 -182 137 -276q-215 -102 -215 -383zM358 459q0 88 62 166l231 -332q-51 -27 -104 -27q-37 0 -72 16.5t-60.5 43t-41 61.5t-15.5 72zM500 1122q0 53 36.5 96.5t86.5 43.5q49 0 88 -39t39 -88q0 -55 -33 -112.5t-80 -82.5l-92 59q-10 6 -18.5 21.5t-14.5 34 t-9 37t-3 30.5z" />
<glyph unicode="'" horiz-adv-x="540" d="M84 1411l2 -211q92 -33 121 -166l12 -59h141q4 39 8.5 62.5t8.5 33.5q35 102 110 133l-2 207h-401z" />
<glyph unicode="(" horiz-adv-x="763" d="M33 1092l6 -658q2 -246 12 -274q10 -205 113 -307q115 -115 315 -115q127 0 238 43v180q-37 -10 -74 -10q-70 0 -117 26q-59 29 -65 91v1333q25 129 198 129l58 -6v180q-74 27 -139 31q-51 10 -154 10q-193 0 -297 -172q-86 -141 -86 -348q-10 -10 -8 -133z" />
<glyph unicode=")" horiz-adv-x="763" d="M29 -47v-180q113 -43 237 -43q203 0 315.5 111.5t112.5 310.5q8 106 13 202l4 224q2 57 2 124v150q0 37 -1 92t-3 127l-4 146q-6 211 -89 348q-102 172 -294 172q-160 0 -293 -41v-180l55 6q80 0 136 -35t65 -94v-1334q-10 -61 -68 -88q-51 -29 -113 -28q-16 0 -34 3z " />
<glyph unicode="*" horiz-adv-x="899" d="M47 987q0 -47 29.5 -74.5t75.5 -27.5l43 8q23 10 36 27l170 180q10 10 23 4q14 -6 8 -25l-72 -211l-8 -53q0 -43 30 -72.5t73 -29.5q41 0 67.5 30.5t26.5 75.5v25l-4 24l-74 211q-4 16 13.5 26.5t23.5 2.5l188 -209q16 -16 82 -16q31 0 53.5 35.5t22.5 68.5q0 86 -82 100 l-227 41q-27 8 -27 33q0 6 6 19q113 29 131 30l77 13.5t50 9.5q68 8 68 106q0 96 -105 97q-47 0 -73 -31l-168 -188q-10 -6 -27 10l-6 6l84 266l2 21q-10 90 -102 90q-104 -12 -105 -92l6 -41l72 -240l-12 -12l-13 -8l-118 131l-52 53q-43 45 -94 39q-90 -12 -90 -107 q0 -82 86 -100l221 -45q31 -6 25 -39l-115 -37l-137 -18q-82 -9 -82 -107z" />
<glyph unicode="+" horiz-adv-x="1052" d="M20 516h420v-465h152v465h436v148h-436v491h-152v-491h-420v-148z" />
<glyph unicode="," horiz-adv-x="509" d="M33 -113v-92l78 -8l43 -2q182 -10 303 119v319h-400v-223h136q29 0 28 -39q0 -61 -41 -61q-6 -18 -80 -19z" />
<glyph unicode="-" horiz-adv-x="876" d="M37 504h807v223h-807v-223z" />
<glyph unicode="." horiz-adv-x="473" d="M37 0h399v184h-399v-184z" />
<glyph unicode="/" horiz-adv-x="641" d="M33 0h160l428 1456h-160z" />
<glyph unicode="0" d="M80 276q0 -285 506 -284q418 0 418 276v807q0 160 -162 246q-129 68 -303 68q-172 0 -295 -56q-164 -74 -164 -225v-832zM588 307v768q0 88 114 88q37 0 74 -16q43 -23 43 -55v-777q0 -49 -31.5 -78.5t-80.5 -29.5q-47 0 -83 28.5t-36 71.5z" />
<glyph unicode="1" d="M170 907l184 109v-1016h516v1401h-364l-336 -277v-217z" />
<glyph unicode="2" d="M53 1020l4 -70l11 -65h182l-4 51q-6 78 26 141q41 78 111 78q127 0 127 -291q0 -100 -27 -180q-35 -96 -92 -152l-84 -77q-86 -80 -94 -109q-45 -51 -88 -164q-39 -104 -49 -182h848v215h-549l305 223q178 131 186 158q61 47 97 180q27 100 26 207q0 205 -149 317 q-137 106 -344 107q-100 0 -172 -27q-127 -47 -197 -135q-82 -100 -74 -225z" />
<glyph unicode="3" d="M80 283q0 -182 133 -254q94 -49 301 -49q481 0 481 430q0 219 -141 333q94 143 94 314q0 182 -127 272q-109 76 -301 76q-178 0 -297 -82q-139 -92 -139 -260q0 -49 20 -111h158l4 101q2 45 31 84t68 39l57 -17q43 -12 43 -26v-273q0 -82 -98 -72l-48 5l-47 8v-176l66 2 q92 2 127 -52v-290q0 -94 -105 -95q-111 0 -110 127q0 29 12 60h-172q-4 -23 -7 -46t-3 -48z" />
<glyph unicode="4" d="M37 299h424v-299h471v299h92v193h-92v909h-395l-500 -885v-217zM236 492l225 368v-368h-225z" />
<glyph unicode="5" d="M96 272q0 -174 156 -237q106 -41 305 -41q252 0 350 141q82 121 76 391l-2 78v80q0 168 -127 266q-115 90 -287 90q-162 0 -286 -96v232h600v233h-779v-700h172l15 30q37 78 112 78l52 -10q29 -12 28 -23v-524q0 -31 -43 -45q-35 -12 -67 -12q-27 2 -46.5 12t-19.5 29 q-20 8 -31 112v68h-157l-17 -82q-2 -10 -3 -27.5t-1 -42.5z" />
<glyph unicode="6" d="M80 223q0 -256 467 -256q129 0 258 47q166 63 166 179v616q0 76 -80 117q-61 31 -148 30q-37 0 -47 -2q-63 -8 -116 -39v160q0 80 165 80q82 0 166 -22v206q-164 70 -432 70q-131 0 -256 -86q-143 -94 -143 -215v-885zM580 193v538q0 57 110 57q96 0 96 -36v-537 q-2 -23 -61 -39q-45 -10 -80 -10q-65 0 -65 27z" />
<glyph unicode="7" d="M43 1124h356l-342 -1124h516l433 1415h-963v-291z" />
<glyph unicode="8" d="M55 336q0 -381 506 -381q250 0 361 129q96 115 96 322q0 244 -184 333q96 139 96 316q0 176 -119 276q-113 94 -291 94q-219 0 -325 -141q-96 -127 -97 -348q0 -168 115 -277q-158 -77 -158 -323zM258 317q0 82 43 150q47 78 125 78q53 0 80 -76q20 -49 20 -119 q0 -193 -137 -192q-131 -1 -131 159zM512 1028q0 59 34 106.5t85 47.5q45 0 78.5 -35t33.5 -80q0 -41 -30 -111q-35 -80 -68 -79q-133 -1 -133 151z" />
<glyph unicode="9" d="M90 524q0 -88 80 -139q70 -49 160 -49q33 0 80 17.5t67 37.5v-139q0 -84 -162 -84q-33 0 -36 2q-51 4 -117 39v-180q150 -49 399 -49q141 0 270 53q162 70 162 194v840q0 162 -184 240q-133 57 -324 57q-141 0 -258 -53q-137 -63 -137 -187v-600zM285 559v524q0 57 96 58 q96 0 96 -58v-508q0 -51 -112 -51l-60 8q-20 9 -20 27z" />
<glyph unicode=":" horiz-adv-x="479" d="M45 0h399v184h-399v-184zM45 668h399v200h-399v-200z" />
<glyph unicode=";" horiz-adv-x="497" d="M37 -117v-98q29 -4 57.5 -7t57.5 -3q221 0 309 137v311h-416v-223h131q37 0 37 -59q0 -49 -29 -50q0 -18 -67 -18q-35 0 -80 10zM45 700h416v193h-416v-193z" />
<glyph unicode="&#x3c;" horiz-adv-x="376" d="M12 432l340 -289v230l-205 176l201 182v225l-336 -297v-227z" />
<glyph unicode="=" horiz-adv-x="792" d="M16 352h752v137h-752v-137zM16 664h752v137h-752v-137z" />
<glyph unicode="&#x3e;" horiz-adv-x="405" d="M37 739l199 -176l-195 -178v-229l328 276v244l-332 289v-226z" />
<glyph unicode="?" horiz-adv-x="1161" d="M45 1217l141 24q70 12 133 12q270 0 271 -278v-45l2 -43q2 -25 -4 -62q-16 -102 -68 -116l-207 -70q-92 -31 -92 -72v-299h463l-4 109q-4 63 49 123l107 24q141 33 217 156q66 113 65 266q0 270 -229 412q-190 117 -479 117q-190 0 -365 -66v-192zM252 0h410v201h-410 v-201z" />
<glyph unicode="@" horiz-adv-x="1480" d="M25 487q0 -365 190 -520q176 -150 553 -149q322 0 483 174v182q-213 -182 -516 -182q-283 0 -415 124t-132 398q0 633 547 633q104 0 187 -21q338 -80 338 -350q0 -297 -152 -424v582h-346v-62q-76 88 -234 89q-68 0 -131 -37q-74 -41 -73 -105v-516q0 -78 69 -123 q57 -39 142 -39q160 0 221 99q63 -104 182 -105q233 0 377 230q125 195 125 444q0 270 -240 412q-195 115 -491 114q-358 0 -535 -256q-149 -217 -149 -592zM639 346v399q0 41 70 41q53 0 53 -24v-404q0 -51 -62 -51q-61 0 -61 39z" />
<glyph unicode="A" horiz-adv-x="1517" d="M43 0q51 -33 125 -33q94 0 168 86q59 68 92 174h399q31 -113 116 -184.5t196 -71.5q207 0 381 181v180q-16 -10 -26.5 -17.5t-18.5 -11.5q-52 -27 -77 -27h-3q-29 0 -35 23l-348 1102h-416l-336 -1125q-33 -106 -164 -106l-53 6v-176zM496 424l141 420l135 -420h-276z " />
<glyph unicode="B" horiz-adv-x="1615" d="M43 51q113 -72 268 -71q121 0 269 65q172 82 172 191v401l20 4h21q63 0 125 -20q86 -29 86 -76v-285q0 -76 -117 -76q-37 0 -82 17v-160q113 -61 305 -61q422 0 422 446q0 215 -205 326q119 119 119 309q0 164 -121 260q-109 88 -281 88h-972v-176h155v-981 q0 -31 -47 -53q-39 -16 -76 -17q-31 0 -61 11v-142zM752 815v424q16 4 26 4l33 4q88 0 138 -56t50 -151q0 -98 -52 -164.5t-140 -66.5z" />
<glyph unicode="C" horiz-adv-x="1001" d="M16 709q0 -311 119 -510q143 -240 438 -240q211 0 431 184v172l-168 -100q-23 -14 -52 -20l-51 -7q-59 0 -102 29t-43 76v747q0 164 133 164q111 0 231 -96v184q-143 137 -403 138q-252 0 -404 -244q-129 -207 -129 -477z" />
<glyph unicode="D" horiz-adv-x="1413" d="M43 -4h1024q156 0 219 217q44 146 44 332q0 23 -1 47l-2 84l-2 53q-16 381 -61 492q-76 180 -281 180h-932v-209h154v-999h-162v-197zM752 193v999h184q92 0 127 -133q23 -96 22 -330q0 -537 -102 -536h-231z" />
<glyph unicode="E" horiz-adv-x="983" d="M23 436q0 -203 137 -334q137 -129 344 -129q276 0 477 228v151q-127 -117 -285 -116q-78 0 -121 81q-35 70 -34 152q0 94 77 178q73 74 156 75q8 0 17 -1l36 -4v168l-53 -4q-10 -1 -20 -1q-32 0 -61 10q-38 13 -64.5 36.5t-42 57.5t-15.5 73q0 57 30 101t79 44 q102 0 217 -49v170q-158 127 -381 127q-174 0 -313 -96q-152 -109 -152 -279q0 -199 168 -299q-196 -96 -196 -340z" />
<glyph unicode="F" horiz-adv-x="1179" d="M20 999h185q0 76 44 132.5t113 56.5l33 -4v-369h-135v-207h135v-385q0 -45 -94 -45q-86 0 -149 31v-189q166 -66 356 -65q106 0 248 53q172 70 172 160v440h139v207h-139v361h176v225h-807q-115 0 -197 -131q-80 -130 -80 -271z" />
<glyph unicode="G" horiz-adv-x="1302" d="M16 881q0 -186 146 -322q150 -138 308 -138q15 0 30 1l100 8q47 8 88 31v-201q-80 -68 -196 -67q-168 0 -367 122v-215q242 -129 502 -129q240 0 417 111q160 100 160 186v676h-516v-244q-8 -57 -86 -57l-47 8v389q0 188 305 189q113 0 252 -37v192q-111 20 -226.5 29.5 t-238.5 9.5q-279 0 -444 -129q-187 -143 -187 -413z" />
<glyph unicode="H" horiz-adv-x="1701" d="M43 43q160 -59 338 -59q109 0 242 55q162 70 161 162v508h177v-516q0 -111 116 -168q92 -41 213 -41q82 0 236 61q174 70 174 139v160q-88 -53 -129 -53l-39 8v1110h-571v-448h-177v448h-733v-192h180v-924q0 -92 -127 -92l-61 8v-166z" />
<glyph unicode="I" horiz-adv-x="933" d="M16 37q18 -8 38 -15.5t40 -13.5q111 -29 254 -28q164 0 297 67q164 90 164 238v1116h-762v-176h221v-949q0 -74 -141 -73q-70 0 -111 20v-186z" />
<glyph unicode="J" horiz-adv-x="925" d="M29 -25v-163q135 -98 327 -99q145 0 279 64q170 80 170 203v1421h-746v-184h193v-248h-193v-201h193v-772q0 -53 -92 -53l-72 8q-32 10 -59 24z" />
<glyph unicode="K" horiz-adv-x="1683" d="M37 51q156 -80 295 -80q172 0 293 66q143 82 143 231v316q2 31 78 30q31 0 39 -2q76 -12 76 -32q23 0 20 -50l-4 -63l-10 -102q0 -207 75 -289q80 -88 281 -88q164 0 360 205v143l-110 -51q-23 -8 -47 -9q-23 2 -27 23l-22 334q-10 145 -236 145q-76 0 -174 -35l356 658 h-299l-356 -557v557h-700v-193h168v-948q0 -59 -95 -59l-59 6l-45 16v-172z" />
<glyph unicode="L" horiz-adv-x="1081" d="M16 59q55 25 156 25q109 0 250 -37l315 -80q104 0 199 47q104 57 143 146v176q-51 -76 -136 -121q-75 -40 -155 -40q-11 0 -22 1l-104 8q-51 12 -91 31q100 31 163 101.5t63 158.5v709q2 20 96 20l68 -6l59 -14v133q-115 109 -356 108q-109 0 -244 -53 q-164 -66 -164 -164v-772q0 -152 -240 -221v-156z" />
<glyph unicode="M" horiz-adv-x="1875" d="M37 1200h151v-964q0 -33 -36.5 -55.5t-77.5 -22.5l-23 2v-172q37 -12 86 -13q66 0 146 25q102 35 102 84v684l391 -793l416 764v-622q0 -55 131 -101q111 -37 176 -36q82 0 217 49q160 57 160 123v147q-45 -20 -78 -31h-33l-53 8v1125h-436l-324 -617l-284 617h-631v-201 z" />
<glyph unicode="N" horiz-adv-x="1697" d="M41 59q109 -72 266 -71q158 0 277 65q141 82 141 232v559l424 -848h416v1413h-516v-709l-365 709h-643v-192h168v-949q-2 -33 -27.5 -48t-64.5 -15q-45 0 -76 18v-164z" />
<glyph unicode="O" horiz-adv-x="1198" d="M20 215q0 -82 99 -152q139 -96 409 -96q193 0 338 56q201 80 201 245v772q86 14 133 84v215q-63 -45 -133 -55v117h-332v-41q-223 57 -403 57q-127 0 -219.5 -96t-92.5 -221v-885zM537 260v907q29 86 106 99q39 0 84 -27l-14 -43q-4 -16 -4 -41q0 -57 35.5 -104t93.5 -47 l30 4v-740q0 -47 -69 -73q-49 -18 -111 -19q-49 0 -92 21q-59 24 -59 63z" />
<glyph unicode="P" horiz-adv-x="1357" d="M25 0h616q29 0 64 37q35 41 34 72v159l111 19l135 20q289 43 289 582q0 195 -55 328q-78 184 -246 184h-948v-193h184v-915q0 -92 -53 -92h-131v-201zM739 492v708l49 10l60 7q221 0 221 -320q0 -416 -225 -416q-4 -4 -17 -4t-34 4z" />
<glyph unicode="Q" horiz-adv-x="1191" d="M37 276q49 -178 223 -260q143 -68 346 -67q100 0 187 18l274 -198v239l-59 60q84 109 84 231v817q0 160 -183 244q-139 61 -321 61t-336 -57q-215 -78 -215 -223v-865zM559 227v873q0 59 46 101t110 42q59 0 116 -29q68 -35 68 -90v-839q0 -59 -55 -92l-176 106v-131 q-109 12 -109 59z" />
<glyph unicode="R" horiz-adv-x="1652" d="M43 59q143 -80 334 -79q152 0 260 61q131 76 131 219v348h147q37 0 37 -55v-352q0 -113 103 -168q82 -41 202 -41q127 0 230 43q119 51 166 158v139q-59 -45 -120 -45h-5q-33 0 -33 20v119q0 311 -195 334q88 137 89 301q0 133 -70 229q-78 111 -203 111h-1073v-184h176 v-973q0 -49 -67 -49q-55 0 -109 28v-164zM768 793v446h315q61 0 105 -59q37 -55 37 -119q0 -76 -49 -164q-55 -104 -123 -104h-285z" />
<glyph unicode="S" horiz-adv-x="1026" d="M25 117q211 -141 450 -142q205 0 336 125q135 125 135 330q0 139 -47 203l-270 348q-35 43 -43 70q-18 51 -19 88q8 70 58 69q129 0 272 -100v215q-180 156 -414 156q-176 0 -307 -127q-127 -127 -127 -303q0 -41 17 -107q14 -35 27 -58.5t24 -39.5l141 -182 q135 -172 150 -213q27 -39 26 -78q0 -59 -46 -99.5t-107 -40.5q-131 0 -234 121z" />
<glyph unicode="T" horiz-adv-x="1155" d="M20 1040l5 -41h159l-2 29q-2 70 55.5 121t131.5 51v-999q0 -119 139 -178q98 -39 242 -39q315 0 405 159v181q-102 -86 -180 -86q-37 0 -68 14v940h209v217h-801q-137 0 -216 -93t-79 -243v-33z" />
<glyph unicode="U" horiz-adv-x="1595" d="M37 1247h143v-979q0 -119 115 -196q102 -72 225 -72q145 0 230 49q61 35 131 135q160 -188 352 -188q113 0 210 53t152 152v151q-66 -53 -151 -53v1110h-524v-1032q0 -70 -125 -70q-82 0 -82 37v1057h-676v-154z" />
<glyph unicode="V" horiz-adv-x="1314" d="M16 1200h148v-932q0 -154 178 -235q147 -66 342 -66q199 0 334 80q162 98 162 285v700l133 92v244l-133 -84v117h-357v-242q0 -72 43 -116t115 -44v-663q0 -49 -66 -78q-55 -23 -108 -22q-90 0 -90 49v1116h-701v-201z" />
<glyph unicode="W" horiz-adv-x="2021" d="M37 1233h156v-897q0 -162 114 -252q106 -84 271 -84q111 0 211 49t155 135q174 -193 473 -192q178 0 324 80q176 102 176 264v717q63 20 106 88v252q-45 -63 -106 -76v92h-385v-170q0 -94 41 -160q33 -57 100 -57q23 0 27 2v-639q0 -55 -38 -90t-93 -35q-109 0 -109 92 v1057h-553v-1032q0 -63 -88 -64q-84 0 -84 64v1032h-698v-176z" />
<glyph unicode="X" horiz-adv-x="1253" d="M20 59q82 -76 168 -75q147 0 232 133q156 -154 403 -154q131 0 247 53.5t181 151.5v168l-98 -60q-100 -59 -178 -59q-39 0 -82 19v401h190v240h-190v167q0 72 63 115q53 39 129 39q47 0 99 -22v196q-59 37 -113 37q-133 0 -244 -125q-172 154 -499 154q-88 0 -170 -17 l-99 -20v-193q49 23 95 23q39 0 74.5 -11.5t63 -33t44 -50t16.5 -61.5v-198h-192v-240h192v-322q0 -102 -155 -102q-14 0 -27.5 1t-24.5 3q-82 16 -125 59v-217z" />
<glyph unicode="Y" horiz-adv-x="1542" d="M29 1159h151v-891q0 -109 88 -209q113 -94 269 -94q129 0 231 62q113 70 143 188v-207q0 -41 -45 -98t-86 -57q-18 -18 -104 -19q-174 0 -303 45v-160q137 -76 364 -75h131q285 0 394 45q182 74 182 307v1413h-533v-1010q0 -39 -24.5 -64.5t-61.5 -25.5q-39 0 -64.5 25.5 t-25.5 64.5v1002h-706v-242z" />
<glyph unicode="Z" horiz-adv-x="1306" d="M47 0h1010q156 20 252 135v217q-135 -143 -289 -143h-281l172 428h301v248h-172l207 516h-1147v-193h471l-155 -315h-277v-250h176z" />
<glyph unicode="[" horiz-adv-x="612" d="M63 -285h500v205h-231v1432h227v200h-496v-1837z" />
<glyph unicode="\" horiz-adv-x="1124" d="M16 1327l869 -1323h211l-856 1323h-224z" />
<glyph unicode="]" horiz-adv-x="620" d="M47 -80v-205h502v1835h-502v-194h238v-1436h-238z" />
<glyph unicode="^" horiz-adv-x="663" d="M12 1128h144l172 177l168 -177h145l-205 283h-221z" />
<glyph unicode="_" horiz-adv-x="1247" d="M0 -176v-148h1237v148h-1237z" />
<glyph unicode="`" horiz-adv-x="452" d="M41 1411l260 -283h152l-144 283h-268z" />
<glyph unicode="a" horiz-adv-x="1212" d="M0 215q0 -119 109 -178q86 -43 217 -43q49 0 86 6q123 27 188 129q70 -143 246 -143q102 0 207 55q98 53 155 135v139q-42 -33 -81 -33q-4 0 -9 1l-24 2v807h-486v-84q-111 123 -305 122q-102 0 -192 -47q-111 -59 -111 -151v-717zM436 276v555q10 66 92 66 q27 0 53.5 -13.5t26.5 -31.5v-559q0 -70 -88 -70q-31 0 -57.5 16.5t-26.5 36.5z" />
<glyph unicode="b" horiz-adv-x="1155" d="M0 223q0 -170 266 -233q164 -41 393 -41q158 0 279 78q137 92 137 241v631q0 98 -129 176q-113 70 -219 70q-147 0 -252 -92v356h-475v-1186zM475 168v663q0 57 70 58q20 0 37 -6q35 -18 34 -74v-633q-8 -51 -77 -51q-64 8 -64 43z" />
<glyph unicode="c" horiz-adv-x="700" d="M0 193q0 -106 109 -166q90 -47 202 -47q104 0 213 49q96 45 176 131v176q-113 -82 -206 -82q-35 0 -35 22v601q2 18 41 18q49 0 92 -18v184q-125 76 -301 76q-78 0 -178 -64q-113 -70 -113 -141v-739z" />
<glyph unicode="d" horiz-adv-x="1228" d="M0 176q0 -190 338 -190q150 0 270 114q27 -31 66 -54t83 -39.5t91 -26t90 -9.5q233 0 293 172v189l-35 -35q-33 -27 -66 -27l-30 6v1125h-469v-361l-144 64q-72 31 -153 31q-100 0 -207 -58q-127 -68 -127 -153v-748zM449 336v465q0 68 88 67q94 0 94 -75v-449 q0 -41 -26.5 -68.5t-67.5 -27.5q-37 0 -62.5 25.5t-25.5 62.5z" />
<glyph unicode="e" horiz-adv-x="878" d="M8 188q0 -106 121 -165q94 -41 215 -41q70 0 142.5 15t141 44t132 70t117.5 90v143l-119 -65q-131 -72 -211 -72q-37 0 -80 16l-6 45l6 47q143 70 238 193q102 133 102 285q0 172 -131 260q-111 74 -291 73q-113 0 -238 -86q-139 -96 -139 -196v-656zM467 532v367 q27 43 72 43q115 0 114 -143q0 -86 -43 -166q-55 -101 -143 -101z" />
<glyph unicode="f" horiz-adv-x="729" d="M8 0h463l260 168v184l-244 -143v639h160v244h-160v100h160v201q-150 76 -323 75q-92 0 -201 -84q-115 -86 -115 -176v-1208z" />
<glyph unicode="g" horiz-adv-x="1255" d="M8 184q0 -84 72 -137q66 -47 151 -47q0 -145 121 -229q106 -70 262 -70q236 0 357 90q131 100 153 326l131 67v148l-122 -56v816h-474v-93q-133 133 -344 134q-106 0 -200 -64q-106 -70 -107 -170v-715zM424 -12l117 57l98 55q10 -45 10 -73q0 -133 -121 -133 q-43 0 -76 28q-29 24 -29 55q0 5 1 11zM475 344v471q0 53 90 53q78 0 78 -53v-455q0 -33 -30.5 -52t-71.5 -19q-66 0 -66 55z" />
<glyph unicode="h" horiz-adv-x="1222" d="M8 0h451v823h172v-680q0 -86 76 -131q63 -37 153 -37q84 0 217 62q145 74 146 147v148q-55 -63 -140 -64v631q0 109 -106 172q-90 55 -207 55q-176 0 -311 -135v418h-451v-1409z" />
<glyph unicode="i" horiz-adv-x="608" d="M2 135q0 -63 104 -102q80 -33 158 -33q90 0 211 61q135 70 135 154v154q-70 -61 -133 -70v793h-475v-957zM33 1184h416v184h-416v-184z" />
<glyph unicode="j" horiz-adv-x="589" d="M8 -80v-160q33 -10 60.5 -15t50.5 -7l112 -6q49 6 92.5 27.5t75 54t50 74.5t18.5 92v1112h-451v-957q0 -29 56 -84q55 -53 55 -71q0 -70 -68 -70q-37 4 -51 10zM47 1167h393v185h-393v-185z" />
<glyph unicode="k" horiz-adv-x="1228" d="M8 0h484v508l34 6q37 0 67 -19.5t30 -50.5v-276q0 -94 88 -152q78 -53 174 -53q104 0 198.5 61.5t147.5 159.5v140l-70 -33q-10 -4 -18 -6t-17 -6l-27 -5q-13 -2 -28 -6v332q0 49 -65 84q-67 35 -130 35h-14l-33 -2l-41 -8q14 82 76 132t148 50l59 -6v182q-59 16 -110 16 q-152 0 -285 -102q-125 -94 -184 -242v670h-484v-1409z" />
<glyph unicode="l" horiz-adv-x="620" d="M20 176q0 -184 254 -184q92 0 207 51q139 66 140 141v168q-57 -76 -150 -100v1149h-451v-1225z" />
<glyph unicode="m" horiz-adv-x="1849" d="M0 0h463v801q0 29 37 45q27 14 61 14q45 0 45 -20v-840h473v801q0 45 90 45q43 0 62 -23v-647q0 -88 74 -139q76 -53 161 -53q78 0 224 67q160 76 159 142v167q-68 -57 -149 -84v623q-10 51 -37 92t-65.5 70t-88 43t-104.5 14q-176 0 -313 -137q-137 150 -322 149 q-121 0 -307 -122v92h-463v-1100z" />
<glyph unicode="n" horiz-adv-x="1216" d="M2 0h477v809q0 29 35 47q27 18 59 18q45 0 45 -34v-680q0 -84 80 -133q66 -39 158 -39q90 0 217 61q145 74 146 152v151q-63 -57 -132 -100v692q0 66 -126 121q-102 45 -187 45q-182 0 -295 -129v119h-477v-1100z" />
<glyph unicode="o" horiz-adv-x="1001" d="M2 215q0 -129 162 -186q123 -41 268 -41q121 0 242 45q160 61 160 160v444q100 0 167 94v146q-57 -45 -127 -46v261h-288v-35l-133 51q-66 25 -136 25q-92 0 -198 -66q-117 -72 -117 -160v-692zM442 209v635q0 20 28 43.5t48 23.5q27 -2 51 -26q-14 -31 -14 -82 q0 -156 100 -156l31 4v-336q0 -154 -158 -153q-86 0 -86 47z" />
<glyph unicode="p" horiz-adv-x="1234" d="M2 -248h471v340q98 -104 307 -104q100 0 262 59q190 74 191 154v143q-49 -39 -103 -51l-32 -8v647q0 80 -121 139q-102 49 -195 49q-158 0 -309 -121v93h-471v-1340zM473 252v588q0 29 39 47q29 14 63 14q66 0 66 -41v-575q0 -59 -109 -60q-59 0 -59 27z" />
<glyph unicode="q" horiz-adv-x="1232" d="M2 209q0 -113 123 -170q94 -43 221 -43q193 0 295 96v-364h469v364q78 43 123 101v176q-35 -31 -62 -43q-29 -20 -61 -27v801h-469v-101q-150 131 -352 131q-109 0 -205 -96q-82 -82 -82 -149v-676zM457 307v502q0 35 34.5 56.5t81.5 21.5q68 0 68 -43v-520 q0 -35 -39 -50q-27 -14 -67 -14q-78 0 -78 47z" />
<glyph unicode="r" horiz-adv-x="860" d="M2 143q0 -94 145 -135q92 -25 222 -24q227 0 489 225v168l-209 -109q-29 -16 -41 -18l-31 -8q-15 -4 -32 -6h-68v407q82 76 168 76l55 -8q27 -10 50 -27v416q-166 0 -273 -101v101h-475v-957z" />
<glyph unicode="s" horiz-adv-x="909" d="M-4 270q0 -279 405 -278q307 0 506 192v160l-100 -51l8 28q4 13 6 27l2 39q0 8 1 15q0 106 -81 173l-184 156q-49 40 -49 110v11q0 23 15.5 43t33.5 20q129 0 248 -155v196q-129 176 -412 177q-168 0 -274 -78q-117 -86 -117 -250q0 -111 39 -162l272 -295q10 -10 11 -31 q0 -18 -7.5 -37.5t-19.5 -37t-28.5 -27.5t-34.5 -10q-100 0 -101 194h-123l-12 -47q-2 -10 -3 -31.5t-1 -50.5z" />
<glyph unicode="t" horiz-adv-x="706" d="M2 215q0 -125 104 -186q86 -49 220 -49q147 0 274 79q109 72 109 125v160q-119 -119 -210 -119h-12l-26 2v625h180v248h-180v209h-459v-1094z" />
<glyph unicode="u" horiz-adv-x="1222" d="M0 285q0 -289 233 -289q184 0 363 205l68 -90q29 -37 49 -54q72 -57 172 -57q133 0 245 94q92 76 93 115v151q-61 -55 -127 -61v801h-473v-740q0 -66 -80 -65q-55 0 -56 37v768h-487v-815z" />
<glyph unicode="v" horiz-adv-x="995" d="M2 201q0 -215 430 -215q125 0 242 47q145 66 145 176v428q102 18 176 80v160q-57 -45 -125 -46v261h-290v-392q12 -49 84 -67v-365q0 -47 -39 -73.5t-93 -26.5l-51 8q-18 12 -18 25v751q0 33 -27 84q-29 55 -53 56h-381v-891z" />
<glyph unicode="w" horiz-adv-x="1595" d="M2 223q0 -270 244 -270q150 0 350 190q199 -190 434 -190q125 0 252 61q154 74 154 187v415q82 16 159 76v168q-45 -39 -100 -45v277h-301v-383q0 -53 84 -84v-389q0 -78 -121 -78q-45 0 -78 18v801q0 68 -112 113q-92 35 -170 34h-23l-43 -2l-20 -6l-240 -108v92h-469 v-877zM471 344v471q0 63 66 64q82 -8 81 -70v-457q0 -82 -73 -82q-74 0 -74 74z" />
<glyph unicode="x" horiz-adv-x="1099" d="M4 279q0 -270 209 -271q121 0 203 51q111 -68 256 -67q264 0 428 201v143l-176 -84q-53 -25 -97 -25l-51 9v256h131v176h-131v209q45 39 107 38q98 0 159 -84v177q-29 111 -174 110q-88 0 -170 -43q-129 80 -264 80q-117 0 -222.5 -65.5t-176.5 -165.5v-181 q111 141 264 142v-217h-123v-176h123v-232q0 -47 -84 -47q-39 0 -39 14q-18 0 -26 58q-4 29 -7.5 47t-3.5 26l4 41h-125l-8 -51z" />
<glyph unicode="y" horiz-adv-x="1214" d="M2 201q0 -43 15.5 -82t42 -69t62.5 -46t79 -16q-10 -27 -11 -49q0 -45 19 -78q92 -168 403 -168q213 0 365 104q129 88 129 178v125q66 25 111 76v184q-25 -29 -52 -47l-59 -37v816h-481v-756q0 -45 -72 -76l-72 -8v840h-479v-891zM393 -33l131 72l101 61v-163 q0 -63 -123 -64q-39 0 -74 28.5t-35 65.5z" />
<glyph unicode="z" horiz-adv-x="946" d="M0 -20l16 28q6 8 105 31l80 16q29 6 39 4l188 -57q84 -23 147 -22q111 0 212.5 57t160.5 156v143l-153 -113q-59 -45 -156 -45q-88 0 -152 58l408 579v229l-57 -6l-60 4l-67 11q-182 55 -328 55q-53 0 -106.5 -14.5t-102.5 -39t-92 -60.5t-74 -79v-190q164 170 279 170 q37 0 78 -18l-365 -478v-419z" />
<glyph unicode="{" horiz-adv-x="600" d="M39 608q139 -31 139 -164v-692q0 -43 33 -75.5t76 -32.5h274v120h-110q-33 8 -33 43v672q-37 154 -168 180q72 12 120 61.5t48 115.5v667l4 37q10 16 20 16h119v127h-199q-76 0 -135 -53q-57 -51 -57 -123v-651q0 -57 -37 -99t-94 -48v-101z" />
<glyph unicode="|" horiz-adv-x="311" d="M68 -8h168v1556h-168v-1556z" />
<glyph unicode="}" horiz-adv-x="600" d="M41 -240v-120h274q43 0 76 32.5t33 75.5v692q0 61 39 106.5t100 57.5v101q-57 6 -94 48t-37 99v651q0 70 -59.5 123t-132.5 53h-199v-127h119q25 -4 24 -53v-668q0 -31 14.5 -60.5t37 -53t53 -39.5t63.5 -23q-141 -39 -168 -180v-672q-10 -43 -32 -43h-111z" />
<glyph unicode="~" horiz-adv-x="811" d="M33 1141h119q35 66 94 65l141 -53q63 -25 125 -25l43 5q86 0 150 88q51 66 75 163h-125q-37 -88 -94 -86q-37 2 -135 43t-135 41q-94 0 -170 -73q-76 -70 -88 -168z" />
<glyph unicode="&#xa1;" horiz-adv-x="600" d="M63 -197h469v1145h-469v-1145zM96 1012h408v194h-408v-194z" />
<glyph unicode="&#xa2;" horiz-adv-x="731" d="M33 184q0 -98 88 -155q76 -49 178 -49v-236h117v236q233 70 315 204v168l-61 -39q-59 -39 -135 -39q-29 0 -60 11v600q27 14 64 14q35 0 86 -22v184q-90 76 -172 74l-37 -2v219h-117v-219q-92 0 -174 -62q-92 -72 -92 -156v-731z" />
<glyph unicode="&#xa3;" horiz-adv-x="1331" d="M76 633h168q0 -119 -27 -180q-37 -90 -137 -142l151 -311q150 86 273 86q45 -6 84 -18q55 -16 96 -29.5t70 -24.5q92 -27 168 -26q205 0 350 116l-156 332q-70 -49 -110.5 -66.5t-87.5 -17.5q-33 0 -97 19l-96 25.5t-53 6.5l-78 -6l-70 -6l-16 12q109 72 135 226h184v180 h-206l-52 82q-29 47 -28 92q0 66 45 104.5t114 38.5q37 0 70 -15t57.5 -41t39 -59.5t14.5 -70.5h370q0 496 -626 496q-203 0 -342 -101q-156 -113 -156 -307q0 -57 14 -117q10 -29 21.5 -54.5t25.5 -47.5h-112v-176z" />
<glyph unicode="&#xa4;" horiz-adv-x="901" d="M92 418l30 -33q15 -16 34 -33l123 119q29 -23 47 -29q63 -29 123 -28q55 0 124 28l48 29l118 -121l37 31l31 33l-123 121q23 29 29 47q29 63 28 127q0 57 -28 127q-4 10 -10.5 20t-16.5 21l123 114q-29 41 -68 70l-120 -121q-33 20 -50 29q-59 27 -120 26q-57 0 -127 -28 l-48 -29l-120 121l-35 -33l-27 -35l119 -114q-23 -29 -29 -48q-27 -51 -26 -118q0 -57 28 -127l29 -47zM254 705q0 86 57.5 140t139.5 54q39 0 74.5 -15.5t62 -42t42 -61.5t15.5 -73q0 -41 -15.5 -76t-42 -61.5t-62.5 -42t-74 -15.5q-41 0 -76 15.5t-62.5 41t-43 60.5 t-15.5 76z" />
<glyph unicode="&#xa5;" horiz-adv-x="1333" d="M76 309h125v-90q0 -76 63 -151q82 -68 195 -68q98 0 170.5 47t97.5 133v-149q0 -31 -31 -70q-31 -41 -63 -41q-16 -16 -76 -12l-115 8q-29 4 -54.5 10t-47.5 13v-115q102 -53 285 -53h71q207 0 285 30q129 51 129 219v289h135v101h-135v125h135v98h-135v407h-383v-407 h-127v401h-508v-174h109v-227h-125v-98h125v-125h-125v-101zM600 309h127q0 -61 -61 -61q-66 0 -66 61zM600 410v125h127v-125h-127z" />
<glyph unicode="&#xa6;" horiz-adv-x="319" d="M55 2h213v637h-213v-637zM55 946h209v637h-209v-637z" />
<glyph unicode="&#xa7;" horiz-adv-x="675" d="M18 207q0 -209 306 -209q223 0 352 135v115l-72 -37q20 33 21 74q0 55 -47 114l-46 41q111 41 144 95v116l-72 -37q10 27 10 70q0 76 -57 139l-106 97q-57 51 -58 94q0 49 33 49q92 0 178 -113v137q-94 137 -297 138q-111 0 -192 -76q-82 -74 -82 -184q0 -49 24 -99 l101 -108q-127 -23 -127 -211l10 -45l16 -39l199 -203q8 -8 8 -37q0 -61 -82 -61q-10 0 -32 8q-8 2 -19 53q-8 39 -8 64h-88q-17 -43 -17 -80z" />
<glyph unicode="&#xa8;" horiz-adv-x="960" d="M37 1188h354v213h-354v-213zM561 1192h354v209h-354v-209z" />
<glyph unicode="&#xa9;" horiz-adv-x="1370" d="M61 895q0 -260 183 -442q180 -180 442 -181q262 0 442 181q182 182 183 442q0 258 -185 440q-182 184 -440 185q-262 0 -444 -183q-181 -180 -181 -442zM166 899q0 221 149.5 368.5t370.5 147.5q219 0 367 -151q150 -150 149 -369q0 -221 -149 -369q-147 -147 -369 -147 q-217 0 -369 151q-149 150 -149 369zM426 909q0 -379 303 -379q53 0 107 29l84 66v86l-84 -49q-23 -12 -50 -13q-74 8 -73 51v373q0 76 69 76q59 0 113 -41v92q-90 74 -197 68l-36 -2q-104 -6 -179 -133q-57 -101 -57 -224z" />
<glyph unicode="&#xaa;" horiz-adv-x="727" d="M16 698h715v101h-715v-101zM20 999q0 -135 195 -135q111 0 166 84q43 -88 147 -88q29 0 61 9.5t61.5 25.5t54 36.5t40.5 45.5v82l-34 -19h-35v486h-291v-51q-55 74 -182 73q-59 0 -117 -28q-66 -35 -66 -90v-431zM283 1036v334q0 39 55 39l33 -8q12 -12 14 -19v-335 q0 -43 -53 -43q-49 -1 -49 32z" />
<glyph unicode="&#xab;" horiz-adv-x="720" d="M16 432l340 -289v230l-204 176l200 182v225l-336 -297v-227zM369 432l336 -289v230l-205 176l205 182v225l-336 -297v-227z" />
<glyph unicode="&#xac;" horiz-adv-x="729" d="M8 0h463l260 168v184l-244 -143v983h160v201q-150 76 -323 75q-92 0 -201 -84q-115 -86 -115 -176v-1208z" />
<glyph unicode="&#xad;" horiz-adv-x="876" d="M37 504h807v223h-807v-223z" />
<glyph unicode="&#xae;" horiz-adv-x="1382" d="M63 897q0 -264 179 -442q180 -178 444 -179q260 0 440 181q182 182 183 440q0 258 -182.5 440.5t-440.5 182.5q-262 0 -442.5 -180.5t-180.5 -442.5zM168 897q0 219 149.5 368.5t368.5 149.5q215 0 366.5 -151.5t151.5 -366.5q0 -219 -149.5 -368.5t-368.5 -149.5 q-221 0 -371 147q-147 150 -147 371zM334 614q70 -39 151 -39q76 0 127.5 34t51.5 96v155h65q16 0 16 -24v-158q0 -94 150 -94q131 0 168 90v63q-27 -20 -45 -20l-27 8q0 76 -6 111q-16 86 -82 92q41 66 41 145q0 43 -41 94q-41 49 -84 50h-485v-84h80v-437q-2 -20 -33 -20 q-23 0 -47 12v-74zM664 944v199h141q63 0 63 -76q0 -33 -24 -78q-20 -45 -53 -45h-127z" />
<glyph unicode="&#xaf;" horiz-adv-x="700" d="M25 1397l194 -293h246l211 293h-184l-144 -172l-143 172h-180z" />
<glyph unicode="&#xb0;" horiz-adv-x="491" d="M63 1241q0 -80 53.5 -133t133.5 -53t133 53t53 133t-53 133t-133 53t-133.5 -53t-53.5 -133zM141 1241q0 45 32 77t77 32q43 0 75.5 -33t32.5 -76t-32.5 -75.5t-75.5 -32.5q-47 0 -78 32.5t-31 75.5z" />
<glyph unicode="&#xb1;" horiz-adv-x="1052" d="M20 823l420 2v-467h-311l2 -153h807l-2 153h-344v465h436v148h-436v491h-152v-491h-420v-148z" />
<glyph unicode="&#xb2;" horiz-adv-x="530" d="M20 1286l7 -65h92l-2 28q-2 33 16 74q20 33 51 33q39 0 62.5 -37t23.5 -84q0 -86 -57 -164q-33 -47 -121 -129l-33 -65q-20 -39 -28 -99h424v109h-275l70 45q16 10 32.5 22.5t32.5 26.5l84 76q31 29 39 39q49 76 49 174q0 94 -75 155q-78 61 -172 62q-45 0 -85 -15.5 t-70 -42t-47.5 -63.5t-17.5 -80z" />
<glyph unicode="&#xb3;" horiz-adv-x="501" d="M12 928q0 -150 217 -150q240 0 240 217q0 111 -70 166q47 72 47 156q0 176 -213 176q-86 0 -149 -41q-70 -45 -70 -131v-23l11 -32h77v18l4 39l17 37q16 16 33 16l32 -12l17 -8v-137q-4 -35 -47 -35l-49 6v-88l71 -4q25 -4 25 -21v-145q0 -47 -51 -47q-41 0 -54 33 q-4 16 -4 30l6 29h-86q-4 -20 -4 -49z" />
<glyph unicode="&#xb4;" horiz-adv-x="444" d="M16 1108h152l260 285h-268z" />
<glyph unicode="&#xb5;" horiz-adv-x="909" d="M29 -279h164l4 277q133 0 262 147q14 -20 24.5 -33.5t14.5 -21.5q66 -90 168 -90q117 0 206 96q37 39 37 54v110q-39 -39 -90 -45v578h-342v-533q0 -47 -57 -47q-39 0 -39 27v553h-352v-1072z" />
<glyph unicode="&#xb6;" horiz-adv-x="1300" d="M4 889q0 -539 289 -582q2 -6 117 -22l129 -17l-4 -596h307v1545l129 -3v-1542h280l2 1729h-948q-168 0 -246 -182q-55 -133 -55 -330z" />
<glyph unicode="&#xb7;" horiz-adv-x="563" d="M152 766q0 -59 43 -100t102 -41t100 43t41 102t-43 100t-100 41q-61 0 -102 -42t-41 -103z" />
<glyph unicode="&#x2219;" horiz-adv-x="563" d="M152 766q0 -59 43 -100t102 -41t100 43t41 102t-43 100t-100 41q-61 0 -102 -42t-41 -103z" />
<glyph unicode="&#xb8;" horiz-adv-x="552" d="M10 -334q0 -16 2 -22q72 -27 76 -27q96 -29 223 -29q43 0 84 13q141 45 142 163q0 66 -46.5 104t-115.5 34l-39 -2l45 104h-105l-71 -184l8 -4q31 12 61 12q80 0 80 -76q0 -78 -118 -78q-33 0 -99 17l-96 37q-31 -31 -31 -62z" />
<glyph unicode="&#xb9;" horiz-adv-x="448" d="M63 1294l93 54v-508h258v700h-183l-168 -137v-109z" />
<glyph unicode="&#xba;" horiz-adv-x="600" d="M16 698h572v101h-572v-101zM43 979q0 -76 96 -113q66 -27 162 -26q66 0 143 30q96 37 97 95v268q59 0 100 55v88q-39 -33 -76 -26v155h-172v-20l-80 31q-35 14 -82 14q-59 0 -118 -39q-70 -43 -70 -96v-416zM307 975v381q0 41 45 41q23 -4 31 -17q-8 -14 -8 -49 q0 -45 21.5 -71.5t56.5 -18.5v-203q0 -92 -95 -92l-36 8q-15 9 -15 21z" />
<glyph unicode="&#xbb;" horiz-adv-x="720" d="M41 739l199 -176l-195 -178v-229l328 276v244l-332 289v-226zM393 156l332 276v244l-332 289v-226l199 -176l-199 -178v-229z" />
<glyph unicode="&#xbc;" horiz-adv-x="1079" d="M2 0h188l857 1448h-197zM23 1294l92 54v-508h258v700h-183l-167 -137v-109zM520 160h213v-150h236v150h45v96h-45v455h-199l-250 -443v-108zM621 256l112 184v-184h-112z" />
<glyph unicode="&#xbd;" horiz-adv-x="1216" d="M45 0h188l857 1448h-197zM125 1284l92 53v-508h258v701h-182l-168 -137v-109zM696 526l6 -63h93l-2 29q-2 33 16 73q20 33 51 33q66 -12 66 -149q0 -129 -144 -248q-57 -63 -75 -181h423v109h-274l113 80q121 88 131 110q63 51 63 191q0 98 -76 162q-78 66 -174 65 q-88 0 -151 -63q-66 -62 -66 -148z" />
<glyph unicode="&#xbe;" horiz-adv-x="1054" d="M4 0h189l856 1448h-197zM12 936q0 -158 217 -158q240 0 240 217q0 111 -70 166q47 72 47 156t-67 133q-59 43 -148 43q-84 0 -147 -41q-70 -45 -70 -129l11 -57h77l2 49q8 61 52 61q35 -6 49 -20v-137q-2 -33 -53 -33l-43 4v-88h30q43 0 66 -25v-145q-10 -47 -53 -47 q-55 0 -56 63l6 29h-86zM479 160h213v-150h236v150h45v96h-45v455h-199l-250 -443v-108zM580 256l112 184v-184h-112z" />
<glyph unicode="&#xbf;" horiz-adv-x="1136" d="M45 139q0 -270 229 -407q193 -117 480 -117q178 0 364 66v192l-141 -25q-72 -12 -133 -12q-129 0 -189 51q-74 61 -82 224l-2 43v45q0 154 72 178l207 69q92 31 92 72v299h-463l2 -108q2 -66 -47 -123l-106 -25q-141 -33 -217 -155q-66 -113 -66 -267zM502 885h409v200 h-409v-200z" />
<glyph unicode="&#xc0;" horiz-adv-x="1517" d="M43 0q51 -33 125 -33q94 0 168 86q59 68 92 174h399q31 -113 116 -184.5t196 -71.5q207 0 381 181v180q-16 -10 -26.5 -17.5t-18.5 -11.5q-55 -29 -80 -27q-29 0 -35 23l-348 1102h-416l-336 -1125q-33 -106 -164 -106l-53 6v-176zM483 1798l260 -282h152l-143 282h-269z M496 424l141 420l135 -420h-276z" />
<glyph unicode="&#xc1;" horiz-adv-x="1517" d="M43 0q51 -33 125 -33q94 0 168 86q59 68 92 174h399q31 -113 116 -184.5t196 -71.5q207 0 381 181v180q-16 -10 -26.5 -17.5t-18.5 -11.5q-55 -29 -80 -27q-29 0 -35 23l-348 1102h-416l-336 -1125q-33 -106 -164 -106l-53 6v-176zM496 424l141 420l135 -420h-276z M655 1511h152l260 285h-268z" />
<glyph unicode="&#xc2;" horiz-adv-x="1517" d="M43 0q51 -33 125 -33q94 0 168 86q59 68 92 174h399q31 -113 116 -184.5t196 -71.5q207 0 381 181v180q-16 -10 -26.5 -17.5t-18.5 -11.5q-55 -29 -80 -27q-29 0 -35 23l-348 1102h-416l-336 -1125q-33 -106 -164 -106l-53 6v-176zM444 1513h160l164 168l160 -168h168 l-201 283h-248zM496 424l141 420l135 -420h-276z" />
<glyph unicode="&#xc3;" horiz-adv-x="1517" d="M43 0q51 -33 125 -33q94 0 168 86q59 68 92 174h399q31 -113 116 -184.5t196 -71.5q207 0 381 181v180q-16 -10 -26.5 -17.5t-18.5 -11.5q-55 -29 -80 -27q-29 0 -35 23l-348 1102h-416l-336 -1125q-33 -106 -164 -106l-53 6v-176zM381 1536l123 -20l33 57q23 29 53 29 q23 -4 60.5 -14.5t90.5 -31.5q86 -33 166 -32q88 0 156 86q59 78 74 170h-121q-27 -82 -107 -82l-139 49q-72 25 -119 25q-104 0 -180 -66t-90 -170zM496 424l141 420l135 -420h-276z" />
<glyph unicode="&#xc4;" horiz-adv-x="1517" d="M43 0q51 -33 125 -33q94 0 168 86q59 68 92 174h399q31 -113 116 -184.5t196 -71.5q207 0 381 181v180q-16 -10 -26.5 -17.5t-18.5 -11.5q-55 -29 -80 -27q-29 0 -35 23l-348 1102h-416l-336 -1125q-33 -106 -164 -106l-53 6v-176zM365 1511h354v213h-354v-213zM496 424 l141 420l135 -420h-276zM889 1516h354v208h-354v-208z" />
<glyph unicode="&#xc5;" horiz-adv-x="1511" d="M43 0q51 -33 125 -33q94 0 168 86q59 68 92 174h399q31 -113 116 -184.5t196 -71.5q207 0 381 181v180q-16 -10 -26.5 -17.5t-18.5 -11.5q-55 -29 -80 -27q-29 0 -35 23l-348 1102h-416l-336 -1125q-33 -106 -164 -106l-53 6v-176zM496 424l141 420l135 -420h-276z M610 1702q0 -80 53.5 -133t133.5 -53t133 53t53 133t-53 133t-133 53t-133.5 -53t-53.5 -133zM688 1702q0 45 32 76.5t77 31.5q43 0 75.5 -32.5t32.5 -75.5t-32.5 -76t-75.5 -33q-47 0 -78 33t-31 76z" />
<glyph unicode="&#xc6;" horiz-adv-x="1728" d="M25 0q51 -33 110 -33q117 0 184 76q49 59 89 184h415q106 -252 408 -252q135 0 272 60q137 61 217 166v151q-135 -117 -270 -116q-162 0 -162 233q0 100 72 178q74 78 172 72l37 -2v168l-21 -2h-32q-147 0 -193 86q-16 37 -16 98t44 100t111 39q90 0 174 -53v170 q-170 127 -417 127q-117 0 -224 -70l-4 21h-416l-335 -1125q-14 -49 -62.5 -80.5t-97.5 -27.5l-29 2l-26 6v-176zM475 424l141 420l136 -420h-277z" />
<glyph unicode="&#xc7;" horiz-adv-x="995" d="M16 709q0 -311 119 -510q143 -240 438 -240h39l-67 -111l8 -2q27 10 49 11q70 0 70 -66q0 -35 -25 -47q-41 -18 -76 -18q-51 0 -82 12l-83 33q-25 -31 -25 -72q131 -47 256 -47q74 0 132 40t58 109q0 55 -41 89t-98 30l-31 -2l68 62q86 25 141 61l32 24l22 15 q29 23 50 38l34 25v172l-168 -100q-23 -14 -52 -20l-51 -7q-59 0 -102 29t-43 76v747q0 164 133 164q111 0 231 -96v184q-143 137 -403 138q-252 0 -404 -244q-129 -207 -129 -477z" />
<glyph unicode="&#xc8;" horiz-adv-x="983" d="M23 436q0 -203 137 -334q137 -129 344 -129q276 0 477 228v151q-127 -117 -285 -116q-78 0 -121 81q-35 70 -34 152q0 94 77 178q80 82 173 74l36 -4v168l-53 -4q-43 -4 -81 9t-64.5 36.5t-42 57.5t-15.5 73q0 57 30 101t79 44q102 0 217 -49v170q-158 127 -381 127 q-174 0 -313 -96q-152 -109 -152 -279q0 -199 168 -299q-196 -96 -196 -340zM174 1796l260 -283h152l-144 283h-268z" />
<glyph unicode="&#xc9;" horiz-adv-x="983" d="M23 436q0 -203 137 -334q137 -129 344 -129q276 0 477 228v151q-127 -117 -285 -116q-78 0 -121 81q-35 70 -34 152q0 94 77 178q80 82 173 74l36 -4v168l-53 -4q-43 -4 -81 9t-64.5 36.5t-42 57.5t-15.5 73q0 57 30 101t79 44q102 0 217 -49v170q-158 127 -381 127 q-174 0 -313 -96q-152 -109 -152 -279q0 -199 168 -299q-196 -96 -196 -340zM401 1511h152l260 285h-268z" />
<glyph unicode="&#xca;" horiz-adv-x="983" d="M23 436q0 -203 137 -334q137 -129 344 -129q276 0 477 228v151q-127 -117 -285 -116q-78 0 -121 81q-35 70 -34 152q0 94 77 178q80 82 173 74l36 -4v168l-53 -4q-43 -4 -81 9t-64.5 36.5t-42 57.5t-15.5 73q0 57 30 101t79 44q102 0 217 -49v170q-158 127 -381 127 q-174 0 -313 -96q-152 -109 -152 -279q0 -199 168 -299q-196 -96 -196 -340zM141 1511h160l164 168l160 -168h168l-201 283h-248z" />
<glyph unicode="&#xcb;" horiz-adv-x="983" d="M23 436q0 -203 137 -334q137 -129 344 -129q276 0 477 228v151q-127 -117 -285 -116q-78 0 -121 81q-35 70 -34 152q0 94 77 178q80 82 173 74l36 -4v168l-53 -4q-43 -4 -81 9t-64.5 36.5t-42 57.5t-15.5 73q0 57 30 101t79 44q102 0 217 -49v170q-158 127 -381 127 q-174 0 -313 -96q-152 -109 -152 -279q0 -199 168 -299q-196 -96 -196 -340zM72 1513h354v213h-354v-213zM596 1518h354v208h-354v-208z" />
<glyph unicode="&#xcc;" horiz-adv-x="933" d="M16 37q18 -8 38 -15.5t40 -13.5q111 -29 254 -28q164 0 297 67q164 90 164 238v1116h-762v-176h221v-949q0 -74 -141 -73q-70 0 -111 20v-186zM188 1794l261 -283h151l-143 283h-269z" />
<glyph unicode="&#xcd;" horiz-adv-x="933" d="M16 37q18 -8 38 -15.5t40 -13.5q111 -29 254 -28q164 0 297 67q164 90 164 238v1116h-762v-176h221v-949q0 -74 -141 -73q-70 0 -111 20v-186zM281 1513h151l260 285h-268z" />
<glyph unicode="&#xce;" horiz-adv-x="933" d="M16 37q18 -8 38 -15.5t40 -13.5q111 -29 254 -28q164 0 297 67q164 90 164 238v1116h-762v-176h221v-949q0 -74 -141 -73q-70 0 -111 20v-186zM188 1516h160l164 167l160 -167h168l-201 282h-248z" />
<glyph unicode="&#xcf;" horiz-adv-x="933" d="M16 37q18 -8 38 -15.5t40 -13.5q111 -29 254 -28q164 0 297 67q164 90 164 238v1116h-762v-176h221v-949q0 -74 -141 -73q-70 0 -111 20v-186zM90 1513h354v213h-354v-213zM614 1518h355v208h-355v-208z" />
<glyph unicode="&#xd0;" horiz-adv-x="1449" d="M43 -4h1024q156 0 219 217q49 164 43 379l-2 84l-2 53q-16 381 -61 492q-76 180 -281 180h-932v-209h154v-354h-156v-224h156v-421h-162v-197zM752 193v421h114v224h-114v354h184q92 0 127 -133q23 -96 22 -330q0 -537 -102 -536h-231z" />
<glyph unicode="&#xd1;" horiz-adv-x="1697" d="M41 59q109 -72 266 -71q158 0 277 65q141 82 141 232v559l424 -848h416v1413h-516v-709l-365 709h-643v-192h168v-949q-2 -33 -27.5 -48t-64.5 -15q-45 0 -76 18v-164zM502 1532l123 -21l32 58q23 29 54 28q23 -4 60.5 -14t90.5 -31q86 -33 166 -32q88 0 156 86 q59 78 73 170h-120q-27 -82 -107 -82l-139 49q-72 25 -119 24q-104 0 -180 -65.5t-90 -169.5z" />
<glyph unicode="&#xd2;" horiz-adv-x="1198" d="M20 215q0 -82 99 -152q139 -96 409 -96q193 0 338 56q201 80 201 245v772q86 14 133 84v215q-63 -45 -133 -55v117h-332v-41q-223 57 -403 57q-127 0 -219.5 -96t-92.5 -221v-885zM315 1796l260 -283h152l-143 283h-269zM537 260v907q29 86 106 99q39 0 84 -27l-14 -43 q-4 -16 -4 -41q0 -57 35.5 -104t93.5 -47l30 4v-740q0 -47 -69 -73q-49 -18 -111 -19q-49 0 -92 21q-59 24 -59 63z" />
<glyph unicode="&#xd3;" horiz-adv-x="1198" d="M20 215q0 -82 99 -152q139 -96 409 -96q193 0 338 56q201 80 201 245v772q86 14 133 84v215q-63 -45 -133 -55v117h-332v-41q-223 57 -403 57q-127 0 -219.5 -96t-92.5 -221v-885zM537 260v907q29 86 106 99q39 0 84 -27l-14 -43q-4 -16 -4 -41q0 -57 35.5 -104t93.5 -47 l30 4v-740q0 -47 -69 -73q-49 -18 -111 -19q-49 0 -92 21q-59 24 -59 63zM541 1513h151l260 285h-268z" />
<glyph unicode="&#xd4;" horiz-adv-x="1198" d="M20 215q0 -82 99 -152q139 -96 409 -96q193 0 338 56q201 80 201 245v772q86 14 133 84v215q-63 -45 -133 -55v117h-332v-41q-223 57 -403 57q-127 0 -219.5 -96t-92.5 -221v-885zM301 1511h160l164 168l159 -168h168l-200 283h-248zM537 260v907q29 86 106 99 q39 0 84 -27l-14 -43q-4 -16 -4 -41q0 -57 35.5 -104t93.5 -47l30 4v-740q0 -47 -69 -73q-49 -18 -111 -19q-49 0 -92 21q-59 24 -59 63z" />
<glyph unicode="&#xd5;" horiz-adv-x="1198" d="M20 215q0 -82 99 -152q139 -96 409 -96q193 0 338 56q201 80 201 245v772q86 14 133 84v215q-63 -45 -133 -55v117h-332v-41q-223 57 -403 57q-127 0 -219.5 -96t-92.5 -221v-885zM236 1536l122 -20l33 57q23 29 53 29q23 -4 61 -14.5t91 -31.5q86 -33 166 -32 q88 0 156 86q59 78 73 170h-121q-27 -82 -106 -82l-139 49q-72 25 -119 25q-104 0 -180 -66t-90 -170zM537 260v907q29 86 106 99q39 0 84 -27l-14 -43q-4 -16 -4 -41q0 -57 35.5 -104t93.5 -47l30 4v-740q0 -47 -69 -73q-49 -18 -111 -19q-49 0 -92 21q-59 24 -59 63z" />
<glyph unicode="&#xd6;" horiz-adv-x="1198" d="M20 215q0 -82 99 -152q139 -96 409 -96q193 0 338 56q201 80 201 245v772q86 14 133 84v215q-63 -45 -133 -55v117h-332v-41q-223 57 -403 57q-127 0 -219.5 -96t-92.5 -221v-885zM174 1516h354v213h-354v-213zM537 260v907q29 86 106 99q39 0 84 -27l-14 -43 q-4 -16 -4 -41q0 -57 35.5 -104t93.5 -47l30 4v-740q0 -47 -69 -73q-49 -18 -111 -19q-49 0 -92 21q-59 24 -59 63zM698 1520h355v209h-355v-209z" />
<glyph unicode="&#xd7;" horiz-adv-x="899" d="M12 1061l348 -529l-342 -528h168l260 395l263 -395h168l-342 528l346 529h-179l-256 -393l-253 393h-181z" />
<glyph unicode="&#xd8;" horiz-adv-x="1214" d="M37 -168h207l84 148l149 -7q100 -4 146.5 -6t40.5 -2q150 0 276 74q147 88 147 229v772q86 14 134 84v215q-55 -68 -134 -96v84l142 242h-209l-96 -168h-168v-41q-213 51 -369 51q-150 0 -244 -80q-102 -86 -102 -231v-864q0 -104 111 -199zM555 260v125l334 596v-713 q-6 -33 -78 -67q-72 -31 -115 -31t-88 25q-53 28 -53 65zM555 731v436q4 29 43 60q43 31 74 30q100 0 112 -98z" />
<glyph unicode="&#xd9;" horiz-adv-x="1595" d="M37 1247h143v-979q0 -119 115 -196q102 -72 225 -72q145 0 230 49q61 35 131 135q160 -188 352 -188q113 0 210 53t152 152v151q-66 -53 -151 -53v1110h-524v-1032q0 -70 -125 -70q-82 0 -82 37v1057h-676v-154zM485 1790l260 -283h152l-143 283h-269z" />
<glyph unicode="&#xda;" horiz-adv-x="1595" d="M37 1247h143v-979q0 -119 115 -196q102 -72 225 -72q145 0 230 49q61 35 131 135q160 -188 352 -188q113 0 210 53t152 152v151q-66 -53 -151 -53v1110h-524v-1032q0 -70 -125 -70q-82 0 -82 37v1057h-676v-154zM733 1516h152l260 284h-268z" />
<glyph unicode="&#xdb;" horiz-adv-x="1595" d="M37 1247h143v-979q0 -119 115 -196q102 -72 225 -72q145 0 230 49q61 35 131 135q160 -188 352 -188q113 0 210 53t152 152v151q-66 -53 -151 -53v1110h-524v-1032q0 -70 -125 -70q-82 0 -82 37v1057h-676v-154zM483 1511h160l164 168l160 -168h168l-201 283h-248z" />
<glyph unicode="&#xdc;" horiz-adv-x="1595" d="M37 1247h143v-979q0 -119 115 -196q102 -72 225 -72q145 0 230 49q61 35 131 135q160 -188 352 -188q113 0 210 53t152 152v151q-66 -53 -151 -53v1110h-524v-1032q0 -70 -125 -70q-82 0 -82 37v1057h-676v-154zM373 1509h354v213h-354v-213zM897 1513h354v209h-354v-209 z" />
<glyph unicode="&#xdd;" horiz-adv-x="1542" d="M29 1159h151v-891q0 -109 88 -209q113 -94 269 -94q129 0 231 62q113 70 143 188v-207q0 -41 -45 -98t-86 -57q-18 -18 -104 -19q-174 0 -303 45v-160q137 -76 364 -75h131q285 0 394 45q182 74 182 307v1413h-533v-1010q0 -39 -24.5 -64.5t-61.5 -25.5q-39 0 -64.5 25.5 t-25.5 64.5v1002h-706v-242zM723 1507h151l261 285h-269z" />
<glyph unicode="&#xdf;" horiz-adv-x="1239" d="M6 -270h434v862q18 6 62 6q104 0 149 -51t47 -176q6 -225 -80 -226l-32 9l-99 -150q141 -59 213 -59q18 0 41 2t52 6q92 16 143 47q35 20 106 92q121 121 121 326q0 147 -78 244q-84 104 -229 104q135 125 135 258q0 23 -6 51q-29 143 -172 258q-55 47 -137 86l-148 43 q-16 16 -176 13q-129 -2 -233 -82q-113 -86 -113 -174v-1489zM440 766v426l47 6q94 0 141.5 -63.5t47.5 -161.5q0 -92 -47 -150q-53 -61 -144 -61l-45 6v-2zM440 768v424v-424z" />
<glyph unicode="&#xe0;" horiz-adv-x="1212" d="M0 215q0 -119 109 -178q86 -43 217 -43q49 0 86 6q123 27 188 129q70 -143 246 -143q102 0 207 55q98 53 155 135v139q-47 -37 -90 -32l-24 2v807h-486v-84q-111 123 -305 122q-102 0 -192 -47q-111 -59 -111 -151v-717zM250 1505l260 -282h152l-144 282h-268zM436 276 v555q10 66 92 66q27 0 53.5 -13.5t26.5 -31.5v-559q0 -70 -88 -70q-31 0 -57.5 16.5t-26.5 36.5z" />
<glyph unicode="&#xe1;" horiz-adv-x="1212" d="M0 215q0 -119 109 -178q86 -43 217 -43q49 0 86 6q123 27 188 129q70 -143 246 -143q102 0 207 55q98 53 155 135v139q-47 -37 -90 -32l-24 2v807h-486v-84q-111 123 -305 122q-102 0 -192 -47q-111 -59 -111 -151v-717zM436 276v555q10 66 92 66q27 0 53.5 -13.5 t26.5 -31.5v-559q0 -70 -88 -70q-31 0 -57.5 16.5t-26.5 36.5zM473 1225h152l260 284h-269z" />
<glyph unicode="&#xe2;" horiz-adv-x="1212" d="M0 215q0 -119 109 -178q86 -43 217 -43q49 0 86 6q123 27 188 129q70 -143 246 -143q102 0 207 55q98 53 155 135v139q-47 -37 -90 -32l-24 2v807h-486v-84q-111 123 -305 122q-102 0 -192 -47q-111 -59 -111 -151v-717zM287 1227h159l164 168l160 -168h168l-201 282 h-248zM436 276v555q10 66 92 66q27 0 53.5 -13.5t26.5 -31.5v-559q0 -70 -88 -70q-31 0 -57.5 16.5t-26.5 36.5z" />
<glyph unicode="&#xe3;" horiz-adv-x="1212" d="M0 215q0 -119 109 -178q86 -43 217 -43q49 0 86 6q123 27 188 129q70 -143 246 -143q102 0 207 55q98 53 155 135v139q-47 -37 -90 -32l-24 2v807h-486v-84q-111 123 -305 122q-102 0 -192 -47q-111 -59 -111 -151v-717zM229 1245l123 -20l33 57q23 29 53 29 q23 -4 61 -14.5t91 -30.5q86 -33 166 -33q88 0 155 86q59 78 74 170h-121q-27 -82 -106 -82l-140 49q-72 25 -118 25q-104 0 -180.5 -66t-90.5 -170zM436 276v555q10 66 92 66q27 0 53.5 -13.5t26.5 -31.5v-559q0 -70 -88 -70q-31 0 -57.5 16.5t-26.5 36.5z" />
<glyph unicode="&#xe4;" horiz-adv-x="1212" d="M0 215q0 -119 109 -178q86 -43 217 -43q49 0 86 6q123 27 188 129q70 -143 246 -143q102 0 207 55q98 53 155 135v139q-47 -37 -90 -32l-24 2v807h-486v-84q-111 123 -305 122q-102 0 -192 -47q-111 -59 -111 -151v-717zM162 1225h354v213h-354v-213zM436 276v555 q10 66 92 66q27 0 53.5 -13.5t26.5 -31.5v-559q0 -70 -88 -70q-31 0 -57.5 16.5t-26.5 36.5zM686 1229h354v209h-354v-209z" />
<glyph unicode="&#xe5;" horiz-adv-x="1212" d="M0 215q0 -119 109 -178q86 -43 217 -43q49 0 86 6q123 27 188 129q70 -143 246 -143q102 0 207 55q98 53 155 135v139q-47 -37 -90 -32l-24 2v807h-486v-84q-111 123 -305 122q-102 0 -192 -47q-111 -59 -111 -151v-717zM436 276v555q10 66 92 66q27 0 53.5 -13.5 t26.5 -31.5v-559q0 -70 -88 -70q-31 0 -57.5 16.5t-26.5 36.5zM438 1401q0 -80 53.5 -133.5t133.5 -53.5t133 53.5t53 133.5t-53 133t-133 53t-133.5 -53t-53.5 -133zM516 1401q0 45 32 76.5t77 31.5q43 0 75.5 -32.5t32.5 -75.5t-32.5 -76t-75.5 -33q-47 0 -78 33t-31 76z " />
<glyph unicode="&#xe6;" horiz-adv-x="1572" d="M4 215q0 -70 57 -129q82 -86 256 -86q100 0 165 27.5t126 101.5q156 -147 389 -147q154 0 308 57q156 57 266 162v143q-274 -139 -354 -139q-70 0 -70 63l252 219q121 133 114 306l-2 51q-2 125 -143 215q-115 72 -260 71q-25 0 -70 -12l-102 -26h-324v-84 q-121 123 -317 122q-143 0 -225 -79q-66 -66 -66 -119v-717zM440 276v555q0 55 107 56q66 0 65 -35v-559q0 -74 -80 -74q-31 0 -57 14q-35 16 -35 43zM1163 532v367l25 27q12 14 31 14q129 0 129 -149q0 -88 -48 -166q-55 -93 -137 -93z" />
<glyph unicode="&#xe7;" horiz-adv-x="700" d="M2 193q0 -104 94 -162q82 -51 189 -51l-54 -111l50 4q72 2 71 -45q-4 -49 -98 -49q-41 0 -78 10l-74 23q-29 -23 -22 -54q41 -14 73.5 -20t59.5 -8l104 -6q57 -2 115 24q68 33 68 86q0 45 -47 70q-39 20 -88 18l-27 -2l49 68q197 35 315 172v176q-45 -33 -81 -53 q-49 -23 -91 -23q-31 0 -69 16v601q27 14 67 14q35 0 66 -14v184q-133 78 -266 78q-129 0 -217 -64q-109 -78 -109 -143v-739z" />
<glyph unicode="&#xe8;" horiz-adv-x="878" d="M8 188q0 -106 121 -165q94 -41 215 -41q70 0 142.5 15t141 44t132 70t117.5 90v143l-119 -65q-131 -72 -211 -72q-37 0 -80 16l-6 45l6 47q143 70 238 193q102 133 102 285q0 172 -131 260q-111 74 -291 73q-113 0 -238 -86q-139 -96 -139 -196v-656zM100 1511l260 -282 h152l-143 282h-269zM467 532v367q27 43 72 43q115 0 114 -143q0 -86 -43 -166q-55 -101 -143 -101z" />
<glyph unicode="&#xe9;" horiz-adv-x="878" d="M8 188q0 -106 121 -165q94 -41 215 -41q70 0 142.5 15t141 44t132 70t117.5 90v143l-119 -65q-131 -72 -211 -72q-37 0 -80 16l-6 45l6 47q143 70 238 193q102 133 102 285q0 172 -131 260q-111 74 -291 73q-113 0 -238 -86q-139 -96 -139 -196v-656zM252 1219h151 l261 284h-269zM467 532v367q27 43 72 43q115 0 114 -143q0 -86 -43 -166q-55 -101 -143 -101z" />
<glyph unicode="&#xea;" horiz-adv-x="878" d="M8 188q0 -106 121 -165q94 -41 215 -41q70 0 142.5 15t141 44t132 70t117.5 90v143l-119 -65q-131 -72 -211 -72q-37 0 -80 16l-6 45l6 47q143 70 238 193q102 133 102 285q0 172 -131 260q-111 74 -291 73q-113 0 -238 -86q-139 -96 -139 -196v-656zM78 1227h160 l163 168l160 -168h168l-201 282h-247zM467 532v367q27 43 72 43q115 0 114 -143q0 -86 -43 -166q-55 -101 -143 -101z" />
<glyph unicode="&#xeb;" horiz-adv-x="878" d="M8 188q0 -106 121 -165q94 -41 215 -41q70 0 142.5 15t141 44t132 70t117.5 90v143l-119 -65q-131 -72 -211 -72q-37 0 -80 16l-6 45l6 47q143 70 238 193q102 133 102 285q0 172 -131 260q-111 74 -291 73q-113 0 -238 -86q-139 -96 -139 -196v-656zM25 1221h354v213 h-354v-213zM467 532v367q27 43 72 43q115 0 114 -143q0 -86 -43 -166q-55 -101 -143 -101zM549 1225h354v209h-354v-209z" />
<glyph unicode="&#xec;" horiz-adv-x="692" d="M41 135q0 -59 98 -98q86 -37 150 -37q133 0 239 53q123 63 123 162v154l-65 -47q-33 -16 -66 -23v793h-479v-957zM41 1516l260 -283h152l-144 283h-268z" />
<glyph unicode="&#xed;" horiz-adv-x="692" d="M41 135q0 -59 98 -98q86 -37 150 -37q133 0 239 53q123 63 123 162v154l-65 -47q-33 -16 -66 -23v793h-479v-957zM152 1212h151l260 285h-268z" />
<glyph unicode="&#xee;" horiz-adv-x="692" d="M12 1239h144l172 176l168 -176h145l-205 283h-221zM41 135q0 -59 98 -98q86 -37 150 -37q133 0 239 53q123 63 123 162v154l-65 -47q-33 -16 -66 -23v793h-479v-957z" />
<glyph unicode="&#xef;" horiz-adv-x="692" d="M-156 1225h351v213h-351v-213zM41 135q0 -59 98 -98q86 -37 150 -37q133 0 239 53q123 63 123 162v154l-65 -47q-33 -16 -66 -23v793h-479v-957zM365 1229h354v209h-354v-209z" />
<glyph unicode="&#xf0;" horiz-adv-x="960" d="M35 193q0 -113 164 -179q129 -47 260 -47q467 0 467 256v885q0 74 -70 145q-66 68 -170 115l105 117l-173 143l-190 -219q-145 0 -334 -70v-206l58 14l61 6l-27 -33l172 -143l68 80v-142q-66 41 -164 41q-86 0 -147 -30q-80 -41 -80 -117v-616zM219 215v537q0 37 94 36 q113 0 113 -57v-538q0 -27 -61 -27q-47 0 -99 14q-47 19 -47 35z" />
<glyph unicode="&#xf1;" horiz-adv-x="1216" d="M2 0h477v809q0 29 35 47q27 18 59 18q45 0 45 -34v-680q0 -84 80 -133q66 -39 158 -39q90 0 217 61q145 74 146 152v151q-63 -57 -132 -100v692q0 66 -126 121q-102 45 -187 45q-182 0 -295 -129v119h-477v-1100zM145 1249l123 -20l33 57q23 29 53 29q23 -4 61 -14.5 t91 -30.5q86 -33 166 -33q88 0 155 86q59 78 74 170h-121q-27 -82 -106 -82l-139 49q-72 25 -119 25q-104 0 -180.5 -66t-90.5 -170z" />
<glyph unicode="&#xf2;" horiz-adv-x="1001" d="M2 215q0 -129 162 -186q123 -41 268 -41q121 0 242 45q160 61 160 160v444q100 0 167 94v146q-57 -45 -127 -46v261h-288v-35l-133 51q-66 25 -136 25q-92 0 -198 -66q-117 -72 -117 -160v-692zM152 1505l260 -282h151l-143 282h-268zM442 209v635q0 20 28 43.5t48 23.5 q27 -2 51 -26q-14 -31 -14 -82q0 -156 100 -156l31 4v-336q0 -154 -158 -153q-86 0 -86 47z" />
<glyph unicode="&#xf3;" horiz-adv-x="1001" d="M2 215q0 -129 162 -186q123 -41 268 -41q121 0 242 45q160 61 160 160v444q100 0 167 94v146q-57 -45 -127 -46v261h-288v-35l-133 51q-66 25 -136 25q-92 0 -198 -66q-117 -72 -117 -160v-692zM311 1219h152l260 284h-268zM442 209v635q0 20 28 43.5t48 23.5 q27 -2 51 -26q-14 -31 -14 -82q0 -156 100 -156l31 4v-336q0 -154 -158 -153q-86 0 -86 47z" />
<glyph unicode="&#xf4;" horiz-adv-x="1001" d="M2 215q0 -129 162 -186q123 -41 268 -41q121 0 242 45q160 61 160 160v444q100 0 167 94v146q-57 -45 -127 -46v261h-288v-35l-133 51q-66 25 -136 25q-92 0 -198 -66q-117 -72 -117 -160v-692zM133 1214h160l164 168l159 -168h168l-200 283h-248zM442 209v635 q0 20 28 43.5t48 23.5q27 -2 51 -26q-14 -31 -14 -82q0 -156 100 -156l31 4v-336q0 -154 -158 -153q-86 0 -86 47z" />
<glyph unicode="&#xf5;" horiz-adv-x="1001" d="M2 215q0 -129 162 -186q123 -41 268 -41q121 0 242 45q160 61 160 160v444q100 0 167 94v146q-57 -45 -127 -46v261h-288v-35l-133 51q-66 25 -136 25q-92 0 -198 -66q-117 -72 -117 -160v-692zM68 1245l122 -20l33 57q23 29 53 29q23 -4 61 -14.5t91 -30.5 q86 -33 166 -33q88 0 156 86q59 78 73 170h-121q-27 -82 -106 -82l-139 49q-72 25 -119 25q-104 0 -180 -66t-90 -170zM442 209v635q0 20 28 43.5t48 23.5q27 -2 51 -26q-14 -31 -14 -82q0 -156 100 -156l31 4v-336q0 -154 -158 -153q-86 0 -86 47z" />
<glyph unicode="&#xf6;" horiz-adv-x="1001" d="M2 215q0 -129 162 -186q123 -41 268 -41q121 0 242 45q160 61 160 160v444q100 0 167 94v146q-57 -45 -127 -46v261h-288v-35l-133 51q-66 25 -136 25q-92 0 -198 -66q-117 -72 -117 -160v-692zM18 1227h355v213h-355v-213zM442 209v635q0 20 28 43.5t48 23.5 q27 -2 51 -26q-14 -31 -14 -82q0 -156 100 -156l31 4v-336q0 -154 -158 -153q-86 0 -86 47zM543 1231h354v209h-354v-209z" />
<glyph unicode="&#xf7;" horiz-adv-x="876" d="M37 504h807v223h-807v-223zM324 172h256v184h-256v-184zM324 840h256v200h-256v-200z" />
<glyph unicode="&#xf8;" horiz-adv-x="995" d="M6 215q0 -92 98 -154q33 -20 97 -41l-103 -239h170l97 219q18 -4 55 -6l65 -2q92 -2 211 49q137 63 138 152v444q92 0 172 94v146q-63 -45 -134 -46v261h-34l96 225h-189l-100 -225h-55v-39q-137 76 -277 75q-98 0 -196 -61q-111 -72 -111 -160v-692zM440 600v244 q0 25 27 48t51 23q33 -4 51 -16zM485 276l172 400l33 -25v-336q0 -59 -34.5 -100t-88.5 -41q-35 0 -58.5 31.5t-23.5 70.5z" />
<glyph unicode="&#xf9;" horiz-adv-x="1222" d="M0 285q0 -289 233 -289q184 0 363 205l68 -90q29 -37 49 -54q72 -57 172 -57q133 0 245 94q92 76 93 115v151q-61 -55 -127 -61v801h-473v-740q0 -66 -80 -65q-55 0 -56 37v768h-487v-815zM266 1505l260 -282h152l-143 282h-269z" />
<glyph unicode="&#xfa;" horiz-adv-x="1222" d="M0 285q0 -289 233 -289q184 0 363 205l68 -90q29 -37 49 -54q72 -57 172 -57q133 0 245 94q92 76 93 115v151q-61 -55 -127 -61v801h-473v-740q0 -66 -80 -65q-55 0 -56 37v768h-487v-815zM516 1227h152l260 284h-269z" />
<glyph unicode="&#xfb;" horiz-adv-x="1222" d="M0 285q0 -289 233 -289q184 0 363 205l68 -90q29 -37 49 -54q72 -57 172 -57q133 0 245 94q92 76 93 115v151q-61 -55 -127 -61v801h-473v-740q0 -66 -80 -65q-55 0 -56 37v768h-487v-815zM256 1227h160l164 168l159 -168h168l-200 282h-248z" />
<glyph unicode="&#xfc;" horiz-adv-x="1222" d="M0 285q0 -289 233 -289q184 0 363 205l68 -90q29 -37 49 -54q72 -57 172 -57q133 0 245 94q92 76 93 115v151q-61 -55 -127 -61v801h-473v-740q0 -66 -80 -65q-55 0 -56 37v768h-487v-815zM121 1227h354v213h-354v-213zM645 1231h354v209h-354v-209z" />
<glyph unicode="&#xfd;" horiz-adv-x="1214" d="M2 201q0 -43 15.5 -82t42 -69t62.5 -46t79 -16q-10 -27 -11 -49q0 -45 19 -78q92 -168 403 -168q213 0 365 104q129 88 129 178v125q66 25 111 76v184q-25 -29 -52 -47l-59 -37v816h-481v-756q0 -45 -72 -76l-72 -8v840h-479v-891zM393 -33l131 72l101 61v-163 q0 -63 -123 -64q-39 0 -74 28.5t-35 65.5zM522 1229h152l260 284h-268z" />
<glyph unicode="&#xff;" horiz-adv-x="1214" d="M2 201q0 -43 15.5 -82t42 -69t62.5 -46t79 -16q-10 -27 -11 -49q0 -45 19 -78q92 -168 403 -168q213 0 365 104q129 88 129 178v125q66 25 111 76v184q-25 -29 -52 -47l-59 -37v816h-481v-756q0 -45 -72 -76l-72 -8v840h-479v-891zM145 1227h355v213h-355v-213zM393 -33 l131 72l101 61v-163q0 -63 -123 -64q-39 0 -74 28.5t-35 65.5zM670 1231h354v209h-354v-209z" />
<glyph unicode="&#x152;" horiz-adv-x="1622" d="M20 236q0 -147 191 -218q135 -51 309 -51q158 0 281 33q31 8 88 37q51 -35 121.5 -50.5t136.5 -15.5q129 0 262 62q131 63 211 168v151q-133 -115 -268 -114q-164 0 -164 225q0 55 17.5 102t49 82t75.5 54.5t95 19.5l43 -4v168q-256 0 -256 168q0 145 142 145 q78 0 182 -45v170q-188 123 -393 123q-104 0 -219 -45h-189v-33l-174 35q-41 8 -89 12t-103 4q-135 0 -242 -94t-107 -225v-864zM537 260v907q0 80 153 72l41 -2h17q-47 -84 -48 -176q0 -178 160 -285q-197 -92 -196 -330q0 -109 38 -198q4 -10 13.5 -26.5t23.5 -37.5 l-53 -6q-61 0 -105 22.5t-44 59.5z" />
<glyph unicode="&#x153;" horiz-adv-x="1431" d="M0 215q0 -113 160 -180q123 -51 256 -51q137 0 239 45q113 -43 256 -43q295 0 521 215v143q-80 -47 -129.5 -73.5t-67.5 -34.5q-72 -31 -127 -31q-45 0 -84 18l-6 45l6 47q150 78 240 199q104 137 104 289t-125 246q-115 86 -272 86q-45 0 -76 -11l-80 -28h-231v-43 q-133 72 -275 71q-139 0 -235 -90q-74 -72 -74 -127v-692zM440 209v635q0 29 24.5 49t51.5 20q14 -2 28.5 -5t30.5 -11v-717q-27 -14 -57 -14q-78 10 -78 43zM1024 532v367l25 25q16 16 30 16q74 0 103 -41q23 -35 22 -108q0 -90 -45 -166q-53 -93 -135 -93z" />
<glyph unicode="&#x178;" horiz-adv-x="1542" d="M29 1159h151v-891q0 -109 88 -209q113 -94 269 -94q129 0 231 62q113 70 143 188v-207q0 -41 -45 -98t-86 -57q-18 -18 -104 -19q-174 0 -303 45v-160q137 -76 364 -75h131q285 0 394 45q182 74 182 307v1413h-533v-1010q0 -39 -24.5 -64.5t-61.5 -25.5q-39 0 -64.5 25.5 t-25.5 64.5v1002h-706v-242zM369 1513h354v213h-354v-213zM893 1518h354v208h-354v-208z" />
<glyph unicode="&#x2c6;" horiz-adv-x="720" d="M37 1128h160l163 168l160 -168h168l-201 283h-247z" />
<glyph unicode="&#x2dc;" horiz-adv-x="811" d="M29 1141l123 -21l32 58q23 29 54 28q23 -4 60.5 -14t90.5 -31q86 -33 166 -33q88 0 156 86q59 78 73 170h-120q-27 -82 -107 -81l-139 49q-72 25 -119 24q-104 0 -180 -65.5t-90 -169.5z" />
<glyph unicode="&#x2000;" horiz-adv-x="944" />
<glyph unicode="&#x2001;" horiz-adv-x="1888" />
<glyph unicode="&#x2002;" horiz-adv-x="944" />
<glyph unicode="&#x2003;" horiz-adv-x="1888" />
<glyph unicode="&#x2004;" horiz-adv-x="628" />
<glyph unicode="&#x2005;" horiz-adv-x="471" />
<glyph unicode="&#x2006;" horiz-adv-x="313" />
<glyph unicode="&#x2007;" horiz-adv-x="313" />
<glyph unicode="&#x2008;" horiz-adv-x="235" />
<glyph unicode="&#x2009;" horiz-adv-x="376" />
<glyph unicode="&#x200a;" horiz-adv-x="104" />
<glyph unicode="&#x2010;" horiz-adv-x="876" d="M37 504h807v223h-807v-223z" />
<glyph unicode="&#x2011;" horiz-adv-x="876" d="M37 504h807v223h-807v-223z" />
<glyph unicode="&#x2012;" horiz-adv-x="876" d="M37 504h807v223h-807v-223z" />
<glyph unicode="&#x2013;" horiz-adv-x="1198" d="M4 440h1149v211h-1149v-211z" />
<glyph unicode="&#x2014;" horiz-adv-x="2076" d="M8 440h2011v211h-2011v-211z" />
<glyph unicode="&#x2018;" horiz-adv-x="491" d="M37 952h399v224h-133q-41 0 -41 63q0 68 96 68q53 0 95 -19v113h-318q-43 0 -70.5 -29t-27.5 -72v-348z" />
<glyph unicode="&#x2019;" horiz-adv-x="487" d="M53 983q61 -12 123 -12q199 0 301 129v323h-401v-223h137q25 -4 25 -41q0 -84 -123 -84l-62 8v-100z" />
<glyph unicode="&#x201a;" horiz-adv-x="481" d="M27 -82v-92q68 -12 125 -12q178 0 299 120v320h-400v-223l39 -6l51 4q10 2 17 2h12h20q12 -4 15 -8q12 -16 12 -27q0 -6 -6 -8l4 -19q0 -33 -55 -47q-23 -4 -42.5 -7t-37.5 -1z" />
<glyph unicode="&#x201c;" horiz-adv-x="960" d="M39 954h399v215h-131q-39 0 -39 64q0 74 86 74q53 0 101 -21v117h-318q-43 0 -70.5 -28.5t-27.5 -71.5v-349zM489 954h402v215h-127q-35 4 -45 64q0 51 20 63q14 8 72 9q53 0 94 -19v117h-315q-43 0 -72 -28.5t-29 -71.5v-349z" />
<glyph unicode="&#x201d;" horiz-adv-x="911" d="M27 948q68 -12 125 -12q178 0 299 121v323h-400v-223h139q20 -2 21 -47q0 -72 -121 -72h-35l-28 2v-92zM479 948q68 -12 123 -12q180 0 301 121v323h-401v-223h137q25 -4 25 -39q0 -84 -119 -84q-41 0 -66 6v-92z" />
<glyph unicode="&#x201e;" horiz-adv-x="958" d="M27 -82v-92q68 -12 125 -12q178 0 299 120v320h-400v-223q14 -8 37 -8h23l45 2l34 6q12 -4 15 -8q12 -16 12 -27q0 -6 -6 -8l4 -17q0 -35 -55 -49q-41 -12 -84 -8zM479 -82v-92q68 -12 123 -12q180 0 301 120v320h-401v-223q33 -10 59 -8l43 2l35 6q25 -4 25 -37 q-10 -59 -33 -60q-6 -8 -35 -14l-70 -6h-26z" />
<glyph unicode="&#x2022;" horiz-adv-x="356" d="M14 604q0 -68 47.5 -115t114.5 -47q68 0 115 47.5t47 114.5q0 68 -47 115t-115 47t-115 -47t-47 -115z" />
<glyph unicode="&#x2026;" horiz-adv-x="1456" d="M37 0h399v184h-399v-184zM541 0h399v184h-399v-184zM1034 0h400v184h-400v-184z" />
<glyph unicode="&#x202f;" horiz-adv-x="376" />
<glyph unicode="&#x2039;" horiz-adv-x="450" d="M16 432l340 -289v230l-204 176l200 182v225l-336 -297v-227z" />
<glyph unicode="&#x203a;" horiz-adv-x="409" d="M20 739l199 -176l-194 -178v-229l327 276v244l-332 289v-226z" />
<glyph unicode="&#x205f;" horiz-adv-x="471" />
<glyph unicode="&#x2122;" horiz-adv-x="1595" d="M27 1331l2 -37h80q-6 43 20.5 72t71.5 29v-500q0 -111 190 -111q158 0 203 82v90l-47 -30q-27 -10 -41 -11l-35 9v467h104v108h-401q-68 0 -109.5 -49t-37.5 -119zM649 1399h76v-479q0 -18 -23.5 -32t-44.5 -9v-88l39 -7q35 0 76 15q51 18 51 45v342l197 -402l207 387 v-311q4 -29 65 -53q49 -20 88 -21q43 0 109 27q80 31 80 61v74l-27 -8l-26 -4l-29 4v559h-217l-162 -305l-143 305h-316v-100z" />
<glyph unicode="&#xe000;" horiz-adv-x="1155" d="M0 1155h1155v-1155h-1155v1155z" />
<glyph unicode="&#xfb01;" horiz-adv-x="1337" d="M731 135q0 -63 104 -102q80 -33 158 -33q90 0 211 61q135 70 135 154v154q-70 -61 -133 -70v793h-475v-957zM762 1184h416v184h-416v-184zM8 0h463l260 168v184l-244 -143v639h160v244h-160v100h160v201q-150 76 -323 75q-92 0 -201 -84q-115 -86 -115 -176v-1208z" />
<glyph unicode="&#xfb02;" horiz-adv-x="1349" d="M749 176q0 -184 254 -184q92 0 207 51q139 66 140 141v168q-57 -76 -150 -100v1149h-451v-1225zM8 0h463l260 168v184l-244 -143v639h160v244h-160v100h160v201q-150 76 -323 75q-92 0 -201 -84q-115 -86 -115 -176v-1208z" />
<glyph unicode="&#xfb03;" horiz-adv-x="2066" d="M1460 135q0 -63 104 -102q80 -33 158 -33q90 0 211 61q135 70 135 154v154q-70 -61 -133 -70v793h-475v-957zM1491 1184h416v184h-416v-184zM737 0h463l260 168v184l-244 -143v639h160v244h-160v100h160v201q-150 76 -323 75q-92 0 -201 -84q-115 -86 -115 -176v-1208z M8 0h463l260 168v184l-244 -143v639h160v244h-160v100h160v201q-150 76 -323 75q-92 0 -201 -84q-115 -86 -115 -176v-1208z" />
<glyph unicode="&#xfb04;" horiz-adv-x="2078" d="M1478 176q0 -184 254 -184q92 0 207 51q139 66 140 141v168q-57 -76 -150 -100v1149h-451v-1225zM737 0h463l260 168v184l-244 -143v639h160v244h-160v100h160v201q-150 76 -323 75q-92 0 -201 -84q-115 -86 -115 -176v-1208zM8 0h463l260 168v184l-244 -143v639h160v244 h-160v100h160v201q-150 76 -323 75q-92 0 -201 -84q-115 -86 -115 -176v-1208z" />
</font>
</defs>
</svg>
